<?xml version="1.0" encoding="UTF-8"?>
<!DOCTYPE svg PUBLIC "-//W3C//DTD SVG 1.1//EN" "http://www.w3.org/Graphics/SVG/1.1/DTD/svg11.dtd">
<svg xmlns="http://www.w3.org/2000/svg" version="1.1" width="463px" height="304px" style="shape-rendering:geometricPrecision; text-rendering:geometricPrecision; image-rendering:optimizeQuality; fill-rule:evenodd; clip-rule:evenodd" xmlns:xlink="http://www.w3.org/1999/xlink">
<g><path style="opacity:1" fill="transparent" d="M -0.5,-0.5 C 153.833,-0.5 308.167,-0.5 462.5,-0.5C 462.5,100.833 462.5,202.167 462.5,303.5C 308.167,303.5 153.833,303.5 -0.5,303.5C -0.5,202.167 -0.5,100.833 -0.5,-0.5 Z"/></g>
<g><path style="opacity:1" fill="#1f1f1f" d="M 215.5,140.5 C 203.104,143.686 190.77,147.186 178.5,151C 191.342,148.733 204.008,145.899 216.5,142.5C 267.336,132.452 318.336,123.285 369.5,115C 383.167,114.333 396.833,114.333 410.5,115C 421.067,115.706 430.233,119.539 438,126.5C 442.612,133.433 442.612,140.433 438,147.5C 434.833,152 431,155.833 426.5,159C 394.912,176.14 361.246,186.973 325.5,191.5C 325.5,190.5 325.5,189.5 325.5,188.5C 345.516,183.661 364.85,176.828 383.5,168C 390.38,164.123 393.213,158.29 392,150.5C 390.127,148.291 387.96,146.458 385.5,145C 372.118,140.921 358.451,139.588 344.5,141C 333.494,142.168 322.494,143.335 311.5,144.5C 311.833,193.171 311.5,241.838 310.5,290.5C 279.5,272.333 248.5,254.167 217.5,236C 203.167,235.667 188.833,235.333 174.5,235C 166.714,231.207 161.88,225.04 160,216.5C 159.833,203.82 159.333,191.154 158.5,178.5C 139.509,184.081 120.843,190.581 102.5,198C 96.8428,200.493 91.5095,203.493 86.5,207C 81.8379,210.307 81.3379,214.14 85,218.5C 90.036,222.738 95.8694,225.238 102.5,226C 120.08,227.146 137.414,225.646 154.5,221.5C 155.893,223.674 155.56,225.507 153.5,227C 122.324,233.649 90.8244,237.816 59,239.5C 51.0883,239.417 43.255,238.584 35.5,237C 18.2268,230.597 15.8935,220.597 28.5,207C 39.8723,197.315 52.5389,189.648 66.5,184C 96.8909,172.702 127.891,163.536 159.5,156.5C 159.333,138.83 159.5,121.164 160,103.5C 162.022,95.9476 166.522,90.4476 173.5,87C 187.833,86.6667 202.167,86.3333 216.5,86C 247.67,67.5808 279.003,49.4141 310.5,31.5C 311.5,60.1589 311.833,88.8256 311.5,117.5C 278.913,123.315 246.913,130.982 215.5,140.5 Z"/></g>
<g><path style="opacity:1" fill="#1f1f1f" d="M 348.5,43.5 C 347.833,44.1667 347.167,44.8333 346.5,45.5C 344.688,45.7713 343.022,46.438 341.5,47.5C 340.668,50.161 339.834,52.8276 339,55.5C 338.178,53.2115 337.511,50.8782 337,48.5C 334.427,46.6936 331.593,45.3603 328.5,44.5C 331.167,43.1667 333.833,41.8333 336.5,40.5C 338.929,31.7145 340.596,32.3812 341.5,42.5C 343.806,42.9926 346.139,43.3259 348.5,43.5 Z"/></g>
<g><path style="opacity:1" fill="#1f1f1f" d="M 348.5,43.5 C 349.043,43.56 349.376,43.8933 349.5,44.5C 348.675,45.3857 347.675,45.719 346.5,45.5C 347.167,44.8333 347.833,44.1667 348.5,43.5 Z"/></g>
<g><path style="opacity:1" fill="#1f1f1f" d="M 210.5,47.5 C 212.27,48.8559 213.603,50.6892 214.5,53C 215.5,53.3333 216.5,53.6667 217.5,54C 214.629,55.3706 212.629,57.5372 211.5,60.5C 210.221,57.3481 207.888,55.3481 204.5,54.5C 208.332,53.6719 210.332,51.3385 210.5,47.5 Z"/></g>
<g><path style="opacity:1" fill="#1f1f1f" d="M 353.5,81.5 C 354.6,83.2774 355.434,85.2774 356,87.5C 357.509,88.0897 359.009,88.7564 360.5,89.5C 356.422,90.0771 354.256,92.4104 354,96.5C 352.731,95.0953 352.231,93.4286 352.5,91.5C 345.146,90.7515 344.813,89.0848 351.5,86.5C 352.174,84.8045 352.841,83.1379 353.5,81.5 Z"/></g>
<g><path style="opacity:1" fill="#1f1f1f" d="M 113.5,106.5 C 115.289,108.651 116.622,111.151 117.5,114C 119.878,114.511 122.212,115.178 124.5,116C 122.167,117 119.833,118 117.5,119C 116.144,121.398 114.977,123.898 114,126.5C 113.178,124.212 112.511,121.878 112,119.5C 109.398,118.523 106.898,117.356 104.5,116C 106.98,115.04 109.48,114.207 112,113.5C 112.44,111.134 112.94,108.801 113.5,106.5 Z"/></g>
<g><path style="opacity:1" fill="#1f1f1f" d="M 135.5,138.5 C 136.29,139.609 136.79,140.942 137,142.5C 138.78,143.594 140.614,144.594 142.5,145.5C 138.5,146.167 136.167,148.5 135.5,152.5C 134.548,150.955 134.215,149.288 134.5,147.5C 127.556,146.404 127.223,145.404 133.5,144.5C 133.604,142.297 134.27,140.297 135.5,138.5 Z"/></g>
<g><path style="opacity:1" fill="transparent" d="M 215.5,140.5 C 213.969,141.925 214.302,142.591 216.5,142.5C 204.008,145.899 191.342,148.733 178.5,151C 190.77,147.186 203.104,143.686 215.5,140.5 Z"/></g>
<g><path style="opacity:1" fill="#1f1f1f" d="M 354.5,210.5 C 355.892,212.273 357.059,214.273 358,216.5C 362.601,218.038 362.434,219.371 357.5,220.5C 356.813,222.274 355.98,223.941 355,225.5C 354.285,221.286 351.785,218.953 347.5,218.5C 352.363,217.974 354.697,215.307 354.5,210.5 Z"/></g>
<g><path style="opacity:1" fill="#1f1f1f" d="M 332.5,224.5 C 334.074,226.102 334.741,228.102 334.5,230.5C 340.917,231.12 341.084,232.453 335,234.5C 334.529,236.246 333.862,237.913 333,239.5C 332.562,235.433 330.395,232.933 326.5,232C 330.901,231.357 332.901,228.857 332.5,224.5 Z"/></g>
<g><path style="opacity:1" fill="#1f1f1f" d="M 152.5,240.5 C 154.384,242.769 155.717,245.436 156.5,248.5C 158.795,249.432 161.129,250.265 163.5,251C 161.222,251.986 158.889,252.82 156.5,253.5C 155.331,256.198 154.164,258.865 153,261.5C 152.489,259.122 151.822,256.788 151,254.5C 148.184,253.338 145.35,252.171 142.5,251C 145.292,250.103 147.959,248.937 150.5,247.5C 151.325,245.199 151.992,242.865 152.5,240.5 Z"/></g>
</svg>