<svg width="25" height="26" viewBox="0 0 25 26" fill="none" xmlns="http://www.w3.org/2000/svg">
<path d="M22.9168 4.66162H2.0835C1.65641 4.66162 1.30225 4.30745 1.30225 3.88037C1.30225 3.45329 1.65641 3.09912 2.0835 3.09912H22.9168C23.3439 3.09912 23.6981 3.45329 23.6981 3.88037C23.6981 4.30745 23.3439 4.66162 22.9168 4.66162Z" fill="#1F1F1F"/>
<path d="M11.4585 10.9116H2.0835C1.65641 10.9116 1.30225 10.5575 1.30225 10.1304C1.30225 9.70329 1.65641 9.34912 2.0835 9.34912H11.4585C11.8856 9.34912 12.2397 9.70329 12.2397 10.1304C12.2397 10.5575 11.8856 10.9116 11.4585 10.9116Z" fill="#1F1F1F"/>
<path d="M8.3335 17.1616H2.0835C1.65641 17.1616 1.30225 16.8075 1.30225 16.3804C1.30225 15.9533 1.65641 15.5991 2.0835 15.5991H8.3335C8.76058 15.5991 9.11475 15.9533 9.11475 16.3804C9.11475 16.8075 8.76058 17.1616 8.3335 17.1616Z" fill="#1F1F1F"/>
<path d="M6.25016 23.4116H2.0835C1.65641 23.4116 1.30225 23.0575 1.30225 22.6304C1.30225 22.2033 1.65641 21.8491 2.0835 21.8491H6.25016C6.67725 21.8491 7.03141 22.2033 7.03141 22.6304C7.03141 23.0575 6.67725 23.4116 6.25016 23.4116Z" fill="#1F1F1F"/>
<path d="M22.7708 8.75551C22.1562 8.28676 21.3125 8.19301 20.3229 8.46384L15.7917 9.69301C14.5729 10.0263 13.8229 11.0159 13.8229 12.2659V14.9222V18.7555C13.3854 18.5055 12.875 18.3493 12.3333 18.3493C10.6563 18.3493 9.28125 19.7138 9.28125 21.4013C9.28125 23.0784 10.6458 24.4534 12.3333 24.4534C14.0208 24.4534 15.3854 23.0888 15.3854 21.4013V15.5159L22.1354 13.6722V17.2451C21.6979 16.9951 21.1875 16.8388 20.6458 16.8388C18.9687 16.8388 17.5937 18.2034 17.5937 19.8909C17.5937 21.568 18.9583 22.943 20.6458 22.943C22.3333 22.943 23.6979 21.5784 23.6979 19.8909V12.6513V11.0368C23.6979 9.98467 23.3854 9.21384 22.7708 8.75551ZM12.3333 22.8909C11.5104 22.8909 10.8438 22.2243 10.8438 21.4013C10.8438 20.5784 11.5104 19.9118 12.3333 19.9118C13.1563 19.9118 13.8229 20.5784 13.8229 21.4013C13.8229 22.2243 13.1563 22.8909 12.3333 22.8909ZM20.6458 21.3805C19.8229 21.3805 19.1562 20.7138 19.1562 19.8909C19.1562 19.068 19.8229 18.4013 20.6458 18.4013C21.4687 18.4013 22.1354 19.068 22.1354 19.8909C22.1354 20.7138 21.4687 21.3805 20.6458 21.3805Z" fill="#1F1F1F"/>
</svg>
