<svg width="30" height="30" viewBox="0 0 30 30" fill="none" xmlns="http://www.w3.org/2000/svg">
<path d="M27.4625 20.4125C26.5625 19.3875 25.225 18.75 23.75 18.75C20.9875 18.75 18.75 20.9875 18.75 23.75C18.75 24.6875 19.0125 25.575 19.475 26.325C19.725 26.75 20.05 27.1375 20.425 27.4625C21.3 28.2625 22.4625 28.75 23.75 28.75C25.575 28.75 27.1625 27.775 28.025 26.325C28.4875 25.575 28.75 24.6875 28.75 23.75C28.75 22.475 28.2625 21.3 27.4625 20.4125ZM25.75 25.725C25.5625 25.9125 25.325 26 25.0875 26C24.85 26 24.6125 25.9125 24.425 25.725L23.7625 25.0625L23.075 25.75C22.8875 25.9375 22.65 26.025 22.4125 26.025C22.175 26.025 21.9375 25.9375 21.75 25.75C21.3875 25.3875 21.3875 24.7875 21.75 24.425L22.4375 23.7375L21.775 23.075C21.4125 22.7125 21.4125 22.1125 21.775 21.75C22.1375 21.3875 22.7375 21.3875 23.1 21.75L23.7625 22.4125L24.3875 21.7875C24.75 21.425 25.35 21.425 25.7125 21.7875C26.075 22.15 26.075 22.75 25.7125 23.1125L25.0875 23.7375L25.75 24.4C26.1125 24.7625 26.1125 25.35 25.75 25.725Z" fill="#F1F1F1"/>
<path d="M15.2873 15.0879C14.7748 15.0879 14.3623 15.5004 14.3623 16.0129C14.3623 16.5254 14.7748 16.9379 15.2873 16.9379C15.7998 16.9379 16.2123 16.5254 16.2123 16.0129C16.2123 15.5004 15.7998 15.0879 15.2873 15.0879Z" fill="#F1F1F1"/>
<path d="M8.4499 16.3252C7.9374 16.3252 7.5249 16.7377 7.5249 17.2502C7.5249 17.7627 7.9374 18.1752 8.4499 18.1752C8.9624 18.1752 9.3749 17.7627 9.3749 17.2502C9.3749 16.7377 8.9624 16.3252 8.4499 16.3252Z" fill="#F1F1F1"/>
<path d="M20.2375 2.5H9.7625C9.4125 2.5 9.075 2.5125 8.75 2.5625C4.8125 2.925 2.5 5.5625 2.5 9.7625V20.2375C2.5 24.4375 4.8125 27.075 8.75 27.4375C9.075 27.4875 9.4125 27.5 9.7625 27.5H16.875C17.3625 27.5 17.675 26.95 17.4875 26.5C17.125 25.6375 16.875 24.6375 16.875 23.75C16.875 19.9625 19.9625 16.875 23.75 16.875C24.7 16.875 25.625 17.0625 26.475 17.4375C26.9375 17.6375 27.5 17.325 27.5 16.825V9.7625C27.5 5.2125 24.7875 2.5 20.2375 2.5ZM18.1 10.0625V16.0125C18.1 16.025 18.0875 16.0375 18.0875 16.0625C18.0625 17.5875 16.825 18.825 15.2875 18.825C13.7375 18.825 12.4875 17.5625 12.4875 16.025C12.4875 14.475 13.75 13.225 15.2875 13.225C15.6125 13.225 15.925 13.2875 16.225 13.4V11.2875L11.2625 12.6375V17.2625C11.2625 17.275 11.25 17.2875 11.25 17.3C11.225 18.825 9.9875 20.05 8.45 20.05C6.9 20.05 5.65 18.7875 5.65 17.25C5.65 15.7125 6.9125 14.45 8.45 14.45C8.775 14.45 9.0875 14.5125 9.375 14.625V11.925V9.7375C9.375 8.575 10.1 7.6375 11.2125 7.3375L14.9375 6.3125C16.1 6 16.8125 6.3125 17.2125 6.6125C17.7875 7.05 18.075 7.7625 18.075 8.7125V10.0625H18.1Z" fill="#F1F1F1"/>
</svg>
