<svg width="30" height="30" viewBox="0 0 30 30" fill="none" xmlns="http://www.w3.org/2000/svg">
<path d="M24.0125 18.7627C22.65 18.6752 21.25 19.1752 20.2125 20.2127C18.2625 22.1627 18.2625 25.3252 20.2125 27.2877C20.875 27.9502 21.6875 28.3877 22.55 28.6002C23.025 28.7252 23.525 28.7627 24.025 28.7377C25.2125 28.6877 26.375 28.2127 27.2875 27.3002C28.575 26.0127 29.0125 24.2002 28.6 22.5627C28.4 21.7002 27.95 20.8877 27.2875 20.2252C26.3875 19.3127 25.2125 18.8252 24.0125 18.7627ZM26.55 23.7252C26.55 23.9877 26.45 24.2127 26.275 24.3877C26.1 24.5627 25.875 24.6627 25.6125 24.6627H24.6875V25.6377C24.6875 25.9002 24.5875 26.1252 24.4125 26.3002C24.2375 26.4752 24.0125 26.5752 23.75 26.5752C23.2375 26.5752 22.8125 26.1502 22.8125 25.6377V24.6627H21.875C21.3625 24.6627 20.9375 24.2377 20.9375 23.7252C20.9375 23.2127 21.3625 22.7877 21.875 22.7877H22.8125V21.9002C22.8125 21.3877 23.2375 20.9627 23.75 20.9627C24.2625 20.9627 24.6875 21.3877 24.6875 21.9002V22.7877H25.6125C26.1375 22.7877 26.55 23.2127 26.55 23.7252Z" fill="#F1F1F1"/>
<path d="M15.2873 15.0879C14.7748 15.0879 14.3623 15.5004 14.3623 16.0129C14.3623 16.5254 14.7748 16.9379 15.2873 16.9379C15.7998 16.9379 16.2123 16.5254 16.2123 16.0129C16.2123 15.5004 15.7998 15.0879 15.2873 15.0879Z" fill="#F1F1F1"/>
<path d="M8.4499 16.3252C7.9374 16.3252 7.5249 16.7377 7.5249 17.2502C7.5249 17.7627 7.9374 18.1752 8.4499 18.1752C8.9624 18.1752 9.3749 17.7627 9.3749 17.2502C9.3749 16.7377 8.9624 16.3252 8.4499 16.3252Z" fill="#F1F1F1"/>
<path d="M20.2375 2.5H9.7625C9.4125 2.5 9.075 2.5125 8.75 2.5625C4.8125 2.925 2.5 5.5625 2.5 9.7625V20.2375C2.5 24.4375 4.8125 27.075 8.75 27.4375C9.075 27.4875 9.4125 27.5 9.7625 27.5H16.875C17.3625 27.5 17.675 26.95 17.4875 26.5C17.125 25.6375 16.875 24.6375 16.875 23.75C16.875 19.9625 19.9625 16.875 23.75 16.875C24.7 16.875 25.625 17.0625 26.475 17.4375C26.9375 17.6375 27.5 17.325 27.5 16.825V9.7625C27.5 5.2125 24.7875 2.5 20.2375 2.5ZM18.1 10.0625V16.0125C18.1 16.025 18.0875 16.0375 18.0875 16.0625C18.0625 17.5875 16.825 18.825 15.2875 18.825C13.7375 18.825 12.4875 17.5625 12.4875 16.025C12.4875 14.475 13.75 13.225 15.2875 13.225C15.6125 13.225 15.925 13.2875 16.225 13.4V11.2875L11.2625 12.6375V17.2625C11.2625 17.275 11.25 17.2875 11.25 17.3C11.225 18.825 9.9875 20.05 8.45 20.05C6.9 20.05 5.65 18.7875 5.65 17.25C5.65 15.7125 6.9125 14.45 8.45 14.45C8.775 14.45 9.0875 14.5125 9.375 14.625V11.925V9.7375C9.375 8.575 10.1 7.6375 11.2125 7.3375L14.9375 6.3125C16.1 6 16.8125 6.3125 17.2125 6.6125C17.7875 7.05 18.075 7.7625 18.075 8.7125V10.0625H18.1Z" fill="#F1F1F1"/>
</svg>
