<svg width="30" height="30" viewBox="0 0 30 30" fill="none" xmlns="http://www.w3.org/2000/svg">
<path d="M14.9624 2.5C8.0624 2.5 2.4624 8.1 2.4624 15C2.4624 21.9 8.0624 27.5 14.9624 27.5C21.8624 27.5 27.4624 21.9 27.4624 15C27.4624 8.1 21.8749 2.5 14.9624 2.5ZM13.3999 18.7875C13.3999 19.3875 13.1499 19.625 12.5124 19.625H10.8874C10.2499 19.625 9.9999 19.3875 9.9999 18.7875V11.2125C9.9999 10.6125 10.2499 10.375 10.8874 10.375H12.4999C13.1374 10.375 13.3874 10.6125 13.3874 11.2125V18.7875H13.3999ZM19.9999 18.7875C19.9999 19.3875 19.7499 19.625 19.1124 19.625H17.4999C16.8624 19.625 16.6124 19.3875 16.6124 18.7875V11.2125C16.6124 10.6125 16.8624 10.375 17.4999 10.375H19.1124C19.7499 10.375 19.9999 10.6125 19.9999 11.2125V18.7875Z" fill="#F1F1F1"/>
</svg>
