<svg width="77" height="76" viewBox="0 0 77 76" fill="none" xmlns="http://www.w3.org/2000/svg">
<path d="M38.2643 0.5C17.3904 0.5 0.449219 17.3 0.449219 38C0.449219 58.7 17.3904 75.5 38.2643 75.5C59.1383 75.5 76.0795 58.7 76.0795 38C76.0795 17.3 59.1761 0.5 38.2643 0.5ZM49.6089 46.3625L38.6425 52.625C37.2811 53.4125 35.7685 53.7875 34.2938 53.7875C32.7812 53.7875 31.3064 53.4125 29.945 52.625C27.2223 51.05 25.5963 48.275 25.5963 45.125V32.5625C25.5963 29.45 27.2223 26.6375 29.945 25.0625C32.6677 23.4875 35.9198 23.4875 38.6803 25.0625L49.6467 31.325C52.3694 32.9 53.9954 35.675 53.9954 38.825C53.9954 41.975 52.3694 44.7875 49.6089 46.3625Z" fill="#F1F1F1"/>
</svg>
