<svg width="31" height="31" viewBox="0 0 31 31" fill="none" xmlns="http://www.w3.org/2000/svg">
<path d="M22.2318 12.7618L7.36926 21.7243C6.49426 22.2493 5.36926 21.6243 5.36926 20.5993V10.5993C5.36926 6.23677 10.0818 3.51177 13.8693 5.68677L19.6068 8.98677L22.2193 10.4868C23.0818 10.9993 23.0943 12.2493 22.2318 12.7618Z" fill="#1F1F1F"/>
<path d="M22.9818 20.0865L17.9193 23.0115L12.8693 25.924C11.0568 26.9615 9.00677 26.749 7.51927 25.699C6.79427 25.199 6.88177 24.0865 7.64427 23.6365L23.5318 14.1115C24.2818 13.6615 25.2693 14.0865 25.4068 14.949C25.7193 16.8865 24.9193 18.974 22.9818 20.0865Z" fill="#1F1F1F"/>
</svg>
