<svg width="30" height="30" viewBox="0 0 30 30" fill="none" xmlns="http://www.w3.org/2000/svg">
<path d="M14.9624 2.5C8.0624 2.5 2.4624 8.1 2.4624 15C2.4624 21.9 8.0624 27.5 14.9624 27.5C21.8624 27.5 27.4624 21.9 27.4624 15C27.4624 8.1 21.8749 2.5 14.9624 2.5ZM18.7124 17.7875L15.0874 19.875C14.6374 20.1375 14.1374 20.2625 13.6499 20.2625C13.1499 20.2625 12.6624 20.1375 12.2124 19.875C11.3124 19.35 10.7749 18.425 10.7749 17.375V13.1875C10.7749 12.15 11.3124 11.2125 12.2124 10.6875C13.1124 10.1625 14.1874 10.1625 15.0999 10.6875L18.7249 12.775C19.6249 13.3 20.1624 14.225 20.1624 15.275C20.1624 16.325 19.6249 17.2625 18.7124 17.7875Z" fill="black"/>
</svg>
