<svg width="30" height="30" viewBox="0 0 30 30" fill="none" xmlns="http://www.w3.org/2000/svg">
<path d="M26.3371 6.5375C24.3246 6.3375 22.3121 6.1875 20.2871 6.075V6.0625L20.0121 4.4375C19.8246 3.2875 19.5496 1.5625 16.6246 1.5625H13.3496C10.4371 1.5625 10.1621 3.2125 9.96209 4.425L9.69959 6.025C8.53709 6.1 7.37459 6.175 6.21209 6.2875L3.66209 6.5375C3.13709 6.5875 2.76209 7.05 2.81209 7.5625C2.86209 8.075 3.31209 8.45 3.83709 8.4L6.38709 8.15C12.9371 7.5 19.5371 7.75 26.1621 8.4125C26.1996 8.4125 26.2246 8.4125 26.2621 8.4125C26.7371 8.4125 27.1496 8.05 27.1996 7.5625C27.2371 7.05 26.8621 6.5875 26.3371 6.5375Z" fill="black"/>
<path d="M24.0371 10.175C23.7371 9.8625 23.3246 9.6875 22.8996 9.6875H7.09969C6.67469 9.6875 6.24969 9.8625 5.96219 10.175C5.67469 10.4875 5.51219 10.9125 5.53719 11.35L6.31219 24.175C6.44969 26.075 6.62469 28.45 10.9872 28.45H19.0121C23.3746 28.45 23.5497 26.0875 23.6871 24.175L24.4621 11.3625C24.4871 10.9125 24.3246 10.4875 24.0371 10.175ZM17.0746 22.1875H12.9121C12.3997 22.1875 11.9747 21.7625 11.9747 21.25C11.9747 20.7375 12.3997 20.3125 12.9121 20.3125H17.0746C17.5871 20.3125 18.0121 20.7375 18.0121 21.25C18.0121 21.7625 17.5871 22.1875 17.0746 22.1875ZM18.1246 17.1875H11.8747C11.3622 17.1875 10.9372 16.7625 10.9372 16.25C10.9372 15.7375 11.3622 15.3125 11.8747 15.3125H18.1246C18.6371 15.3125 19.0621 15.7375 19.0621 16.25C19.0621 16.7625 18.6371 17.1875 18.1246 17.1875Z" fill="black"/>
</svg>
