<?xml version="1.0" encoding="utf-8"?><!-- Uploaded to: SVG Repo, www.svgrepo.com, Generator: SVG Repo Mixer Tools -->
<svg width="800px" height="800px" viewBox="0 0 24 24" fill="none" xmlns="http://www.w3.org/2000/svg">
<path fill-rule="evenodd" clip-rule="evenodd" d="M3 13C3 15.2091 4.79086 17 7 17H7.19669C7.69707 17 8.17928 17.1876 8.54814 17.5257L11.4773 20.2107C12.0311 20.7184 12.755 21 13.5063 21C14.7594 21 15.9494 20.2016 16.2601 18.8803C16.5904 17.476 17 15.1081 17 12C17 8.89192 16.5904 6.52403 16.2601 5.11974C15.9494 3.79838 14.7594 3 13.5063 3C12.755 3 12.0311 3.28161 11.4773 3.78926L8.54813 6.47431C8.17928 6.81243 7.69707 7 7.19669 7H7C4.79086 7 3 8.79086 3 11V13ZM7 15C5.89543 15 5 14.1046 5 13L5 11C5 9.89543 5.89543 9 7 9H7.19669C8.19745 9 9.16186 8.62486 9.89958 7.94862L12.8287 5.26357C13.0137 5.09404 13.2554 5 13.5063 5C13.9376 5 14.2384 5.25937 14.3132 5.57761C14.6134 6.85393 15 9.06723 15 12C15 14.9328 14.6134 17.1461 14.3132 18.4224C14.2384 18.7406 13.9376 19 13.5063 19C13.2554 19 13.0137 18.906 12.8287 18.7364L9.89958 16.0514C9.16187 15.3751 8.19745 15 7.19669 15H7Z" fill="#0F1729"/>
<path d="M18.1056 14.5528C17.8586 15.0468 18.0588 15.6474 18.5528 15.8944C19.0468 16.1414 19.6474 15.9412 19.8944 15.4472C21.0352 13.1657 21.0352 10.8343 19.8944 8.55279C19.6474 8.05881 19.0468 7.85858 18.5528 8.10557C18.0588 8.35256 17.8586 8.95324 18.1056 9.44721C18.9648 11.1657 18.9648 12.8343 18.1056 14.5528Z" fill="#0F1729"/>
</svg>