<svg width="30" height="30" viewBox="0 0 30 30" fill="none" xmlns="http://www.w3.org/2000/svg">
<path d="M27.5 15.9375H22.5C21.9875 15.9375 21.5625 15.5125 21.5625 15C21.5625 14.4875 21.9875 14.0625 22.5 14.0625H27.5C28.0125 14.0625 28.4375 14.4875 28.4375 15C28.4375 15.5125 28.0125 15.9375 27.5 15.9375Z" fill="black"/>
<path d="M17.525 4.72514C16.125 3.95014 14.3375 4.15014 12.5125 5.28764L8.8625 7.57514C8.6125 7.72514 8.325 7.81264 8.0375 7.81264H6.875H6.25C3.225 7.81264 1.5625 9.47514 1.5625 12.5001V17.5001C1.5625 20.5251 3.225 22.1876 6.25 22.1876H6.875H8.0375C8.325 22.1876 8.6125 22.2751 8.8625 22.4251L12.5125 24.7126C13.6125 25.4001 14.6875 25.7376 15.6875 25.7376C16.3375 25.7376 16.9625 25.5876 17.525 25.2751C18.9125 24.5001 19.6875 22.8876 19.6875 20.7376V9.26264C19.6875 7.11264 18.9125 5.50014 17.525 4.72514Z" fill="black"/>
</svg>
